<svg xmlns="http://www.w3.org/2000/svg" viewBox="0 0 330.99 382.2">
<style>
.st0{fill:#FFFFFF;}
.st1{fill:#131313;}
</style>
<g>
<g>
<path d="M330.99,95.55v191.1l-165.5,95.55L0,286.65V95.55L165.49,0L330.99,95.55z M269.25,251.01V131.19l-103.76-59.9l-103.76,59.9v119.82l103.76,59.9L269.25,251.01z"/>
<path d="M254.78,139.55v103.1l-51.6,29.79c-0.29-1.78-6.2-39.56-6.96-44.89l16.21-9.35V164l-46.94-27.1L118.56,164v54.2l15.93,9.2c-0.76,5.38-6.67,43.16-6.96,44.89L76.2,242.65v-103.1L165.49,88L254.78,139.55z"/>
<path d="M197.56,172.58v37.04l-17.5,10.1c0.74,5.28,8.97,58.11,9.39,60.65l-23.96,13.83l-23.61-13.63c0.51-2.99,8.67-55.36,9.41-60.64l-17.87-10.31v-37.04l32.07-18.51L197.56,172.58z"/>
</g>
</g>
</svg>
